#!OML:ASF H:\Dans Jumps\Project 1\Capture day 1\Session 1\subject.ASF
:FULLY-SPECIFIED
:DEGREES
581
root 0.682365 17.6598 3.35743 6.69336 -0.150851 -1.25104
lowerback -2.82799 -0.368547 -0.19128
upperback 2.25479 -0.550195 1.8521
thorax 3.92906 -0.306761 1.98325
lowerneck -12.9818 -0.221363 -2.31936
upperneck 16.161 0.0592594 0.632474
head 7.08722 -0.0572332 0.59302
rclavicle -2.13694e-015 -8.74653e-015
rhumerus -24.6751 -22.0918 -79.1786
rradius 21.1667
rwrist 39.4642
rhand -20.1172 -26.2
rfingers 7.12502
rthumb 6.22669 -56.0885
lclavicle -2.13694e-015 -8.74653e-015
lhumerus -21.3508 2.48139 88.8233
lradius 17.2765
lwrist 1.26452
lhand -25.8793 -5.05033
lfingers 7.12502
lthumb 0.6623 24.9284
rfemur -12.9766 -2.25536 20.3315
rtibia 23.64
rfoot -15.5269 -1.96346
rtoes 12.3593
lfemur -12.2197 5.46816 -18.0758
ltibia 20.3236
lfoot -11.9361 4.33973
ltoes -4.06162
582
root 0.682737 17.6598 3.35929 6.68239 -0.179638 -1.25432
lowerback -2.84105 -0.370521 -0.189665
upperback 2.25446 -0.553182 1.85653
thorax 3.93628 -0.308306 1.98669
lowerneck -12.9882 -0.201442 -2.28897
upperneck 16.059 0.0862366 0.599097
head 7.0549 -0.0447627 0.579551
rclavicle 3.13086e-015 -1.59028e-015
rhumerus -24.7353 -22.1114 -79.1671
rradius 21.1741
rwrist 39.4526
rhand -20.0903 -26.1885
rfingers 7.12502
rthumb 6.25264 -56.0763
lclavicle 3.13086e-015 -1.59028e-015
lhumerus -21.352 2.49345 88.8181
lradius 17.2858
lwrist 1.2746
lhand -25.8845 -5.02278
lfingers 7.12502
lthumb 0.657334 24.956
rfemur -12.9524 -2.24487 20.3314
rtibia 23.6233
rfoot -15.5283 -1.94621
rtoes 12.3641
lfemur -12.1872 5.48048 -18.0725
ltibia 20.3078
lfoot -11.9363 4.35379
ltoes -4.05253
583
root 0.683285 17.6598 3.3611 6.67284 -0.205505 -1.25274
lowerback -2.85623 -0.372047 -0.189633
upperback 2.25344 -0.555421 1.85865
thorax 3.94393 -0.309486 1.98866
lowerneck -12.9899 -0.181988 -2.25669
upperneck 15.954 0.11232 0.563979
head 7.02082 -0.0327358 0.565113
rclavicle -4.87022e-015 2.38542e-015
rhumerus -24.7923 -22.1158 -79.1646
rradius 21.191
rwrist 39.4203
rhand -20.0624 -26.1919
rfingers 7.12502
rthumb 6.2796 -56.0788
lclavicle -4.87022e-015 2.38542e-015
lhumerus -21.3524 2.50796 88.8119
lradius 17.2911
lwrist 1.27135
lhand -25.9017 -5.02311
lfingers 7.12502
lthumb 0.64066 24.9557
rfemur -12.9296 -2.2466 20.3252
rtibia 23.6071
rfoot -15.5314 -1.91943
rtoes 12.3802
lfemur -12.1561 5.49374 -18.0759
ltibia 20.2912
lfoot -11.9352 4.36396
ltoes -4.04307
584
root 0.683883 17.6599 3.3628 6.66401 -0.228892 -1.25266
lowerback -2.86914 -0.373033 -0.18675
upperback 2.24895 -0.55698 1.86033
thorax 3.94663 -0.310198 1.98863
lowerneck -12.9849 -0.164201 -2.22407
upperneck 15.8532 0.135858 0.528787
head 6.98702 -0.0219407 0.550359
rclavicle 2.5842e-015 8.74653e-015
rhumerus -24.8502 -22.1041 -79.1693
rradius 21.215
rwrist 39.37
rhand -20.0449 -26.197
rfingers 7.12502
rthumb 6.29649 -56.0834
lclavicle 2.5842e-015 8.74653e-015
lhumerus -21.3571 2.52219 88.8039
lradius 17.2953
lwrist 1.25713
lhand -25.9213 -5.03428
lfingers 7.12502
lthumb 0.621736 24.9446
rfemur -12.9073 -2.25211 20.3206
rtibia 23.5901
rfoot -15.5336 -1.89183
rtoes 12.3948
lfemur -12.1275 5.50731 -18.0779
ltibia 20.2755
lfoot -11.9339 4.37139
ltoes -4.02897
585
root 0.684527 17.66 3.36437 6.65614 -0.250637 -1.25285
lowerback -2.88225 -0.373334 -0.183086
upperback 2.24312 -0.557644 1.8621
thorax 3.94802 -0.31043 1.9883
lowerneck -12.9703 -0.148931 -2.19681
upperneck 15.7517 0.156162 0.496992
head 6.95144 -0.0127095 0.537268
rclavicle 6.60959e-015 -9.14409e-015
rhumerus -24.9036 -22.0826 -79.1797
rradius 21.243
rwrist 39.3109
rhand -20.0355 -26.2076
rfingers 7.12502
rthumb 6.30555 -56.0937
lclavicle 6.60959e-015 -9.14409e-015
lhumerus -21.3583 2.53989 88.7954
lradius 17.2902
lwrist 1.22445
lhand -25.9403 -5.05622
lfingers 7.12502
lthumb 0.603377 24.9227
rfemur -12.8861 -2.25948 20.3159
rtibia 23.5727
rfoot -15.5346 -1.86224
rtoes 12.421
lfemur -12.1015 5.51955 -18.0799
ltibia 20.2611
lfoot -11.9329 4.37833
ltoes -4.01264
586
root 0.685175 17.6602 3.36573 6.64762 -0.268861 -1.25493
lowerback -2.89063 -0.373833 -0.177607
upperback 2.23468 -0.558593 1.86437
thorax 3.94403 -0.310721 1.98747
lowerneck -12.9448 -0.137231 -2.17969
upperneck 15.653 0.171642 0.474825
head 6.91491 -0.00555977 0.528493
rclavicle 5.1684e-015 9.14409e-015
rhumerus -24.9572 -22.0466 -79.1963
rradius 21.2796
rwrist 39.2425
rhand -20.0277 -26.2161
rfingers 7.12502
rthumb 6.31303 -56.102
lclavicle 5.1684e-015 9.14409e-015
lhumerus -21.3573 2.55575 88.7863
lradius 17.2746
lwrist 1.18189
lhand -25.9635 -5.1065
lfingers 7.12502
lthumb 0.580986 24.8725
rfemur -12.8638 -2.26825 20.3136
rtibia 23.5541
rfoot -15.5335 -1.83483
rtoes 12.4416
lfemur -12.0778 5.52793 -18.0796
ltibia 20.2504
lfoot -11.9327 4.38664
ltoes -3.99645
587
root 0.685789 17.6603 3.36682 6.63863 -0.28612 -1.25961
lowerback -2.89748 -0.373845 -0.17018
upperback 2.22638 -0.559003 1.86752
thorax 3.93928 -0.3107 1.98648
lowerneck -12.9094 -0.128028 -2.17543
upperneck 15.5551 0.183633 0.466321
head 6.87698 0.000356657 0.5259
rclavicle -2.6339e-015 9.14409e-015
rhumerus -25.0035 -21.9986 -79.2203
rradius 21.3191
rwrist 39.1658
rhand -20.0202 -26.2236
rfingers 7.12502
rthumb 6.32029 -56.1093
lclavicle -2.6339e-015 9.14409e-015
lhumerus -21.352 2.57268 88.7774
lradius 17.254
lwrist 1.12523
lhand -25.9849 -5.16291
lfingers 7.12502
lthumb 0.560285 24.8161
rfemur -12.8418 -2.2728 20.3145
rtibia 23.5351
rfoot -15.5309 -1.81166
rtoes 12.4685
lfemur -12.0566 5.53451 -18.0764
ltibia 20.2423
lfoot -11.9334 4.39747
ltoes -3.98575
588
root 0.686367 17.6604 3.36758 6.62956 -0.30271 -1.2671
lowerback -2.90047 -0.37393 -0.161836
upperback 2.2165 -0.55956 1.87248
thorax 3.93072 -0.310729 1.98686
lowerneck -12.8636 -0.121914 -2.19082
upperneck 15.4598 0.191631 0.477653
head 6.83816 0.00492214 0.532546
rclavicle -6.01324e-015 -4.37326e-015
rhumerus -25.043 -21.9361 -79.2501
rradius 21.359
rwrist 39.0847
rhand -20.0083 -26.2242
rfingers 7.12502
rthumb 6.33183 -56.1096
lclavicle -6.01324e-015 -4.37326e-015
lhumerus -21.3464 2.58417 88.7707
lradius 17.2354
lwrist 1.07797
lhand -25.992 -5.20145
lfingers 7.12502
lthumb 0.553427 24.7776
rfemur -12.8207 -2.27196 20.3189
rtibia 23.5157
rfoot -15.5263 -1.79339
rtoes 12.4944
lfemur -12.0379 5.53811 -18.0697
ltibia 20.2361
lfoot -11.9326 4.41091
ltoes -3.97479
589
root 0.687007 17.6604 3.36819 6.61959 -0.319489 -1.27285
lowerback -2.90266 -0.374392 -0.156806
upperback 2.20709 -0.560484 1.87793
thorax 3.92225 -0.311043 1.98959
lowerneck -12.8186 -0.115332 -2.21168
upperneck 15.3709 0.200085 0.496469
head 6.80151 0.0100008 0.542552
rclavicle -4.22417e-015 -4.77083e-015
rhumerus -25.0729 -21.8634 -79.2862
rradius 21.3986
rwrist 39.004
rhand -19.9935 -26.2195
rfingers 7.12502
rthumb 6.34611 -56.1044
lclavicle -4.22417e-015 -4.77083e-015
lhumerus -21.3397 2.58622 88.768
lradius 17.2209
lwrist 1.04973
lhand -25.9954 -5.21814
lfingers 7.12502
lthumb 0.55014 24.7609
rfemur -12.7992 -2.27174 20.3211
rtibia 23.4964
rfoot -15.5211 -1.77343
rtoes 12.5246
lfemur -12.0187 5.5396 -18.0655
ltibia 20.2298
lfoot -11.9311 4.4278
ltoes -3.96375
590
root 0.687768 17.6605 3.36877 6.60898 -0.33868 -1.27992
lowerback -2.90566 -0.373912 -0.150864
upperback 2.19825 -0.560229 1.884
thorax 3.91478 -0.310762 1.99252
lowerneck -12.7768 -0.107779 -2.23786
upperneck 15.2897 0.209787 0.522412
head 6.76788 0.0159403 0.555852
rclavicle 5.76476e-015 -1.47101e-014
rhumerus -25.0911 -21.7863 -79.3266
rradius 21.4294
rwrist 38.9276
rhand -19.9807 -26.202
rfingers 7.12502
rthumb 6.35843 -56.0866
lclavicle 5.76476e-015 -1.47101e-014
lhumerus -21.334 2.57564 88.7693
lradius 17.2167
lwrist 1.04295
lhand -25.988 -5.20753
lfingers 7.12502
lthumb 0.557351 24.7715
rfemur -12.7775 -2.27211 20.3241
rtibia 23.4769
rfoot -15.5155 -1.75014
rtoes 12.5556
lfemur -11.9971 5.53953 -18.0603
ltibia 20.2213
lfoot -11.9278 4.44962
ltoes -3.95324
591
root 0.688663 17.6606 3.36942 6.59839 -0.361815 -1.28641
lowerback -2.91086 -0.371864 -0.145868
upperback 2.18963 -0.55786 1.89007
thorax 3.90873 -0.309464 1.99611
lowerneck -12.7384 -0.098834 -2.26149
upperneck 15.2143 0.221285 0.546598
head 6.73672 0.022701 0.56834
rclavicle 3.03147e-015 -4.37326e-015
rhumerus -25.1 -21.6983 -79.3723
rradius 21.4583
rwrist 38.8515
rhand -19.9656 -26.1908
rfingers 7.12502
rthumb 6.37302 -56.075
lclavicle 3.03147e-015 -4.37326e-015
lhumerus -21.3308 2.55588 88.7736
lradius 17.2132
lwrist 1.0348
lhand -25.992 -5.22966
lfingers 7.12502
lthumb 0.5535 24.7494
rfemur -12.7558 -2.2744 20.3253
rtibia 23.4573
rfoot -15.5107 -1.72097
rtoes 12.5876
lfemur -11.9719 5.5399 -18.0567
ltibia 20.2086
lfoot -11.922 4.47465
ltoes -3.94999
592
root 0.689559 17.6608 3.37013 6.58918 -0.388139 -1.29301
lowerback -2.92034 -0.368753 -0.142748
upperback 2.18128 -0.554036 1.89634
thorax 3.90535 -0.30751 2.00103
lowerneck -12.7087 -0.0871447 -2.27815
upperneck 15.1495 0.236233 0.565912
head 6.71047 0.0310359 0.578465
rclavicle -1.49089e-016 -6.75868e-015
rhumerus -25.0987 -21.6047 -79.4233
rradius 21.4836
rwrist 38.7745
rhand -19.9497 -26.185
rfingers 7.12502
rthumb 6.38835 -56.0687
lclavicle -1.49089e-016 -6.75868e-015
lhumerus -21.3288 2.52502 88.7801
lradius 17.2123
lwrist 1.03017
lhand -26.0045 -5.2815
lfingers 7.12502
lthumb 0.541377 24.6976
rfemur -12.7357 -2.27471 20.3266
rtibia 23.4369
rfoot -15.5057 -1.69139
rtoes 12.6146
lfemur -11.9454 5.54199 -18.0532
ltibia 20.1922
lfoot -11.9144 4.50009
ltoes -3.95496
593
root 0.690453 17.6611 3.37087 6.5808 -0.417543 -1.29931
lowerback -2.93139 -0.36382 -0.141279
upperback 2.17223 -0.547699 1.90242
thorax 3.90206 -0.304345 2.00684
lowerneck -12.6858 -0.0735262 -2.28692
upperneck 15.0932 0.253667 0.578092
head 6.6881 0.0403542 0.585253
rclavicle -2.33572e-015 1.19271e-015
rhumerus -25.0908 -21.5065 -79.478
rradius 21.5089
rwrist 38.6931
rhand -19.9328 -26.1905
rfingers 7.12502
rthumb 6.40465 -56.0737
lclavicle -2.33572e-015 1.19271e-015
lhumerus -21.3301 2.49039 88.7874
lradius 17.2207
lwrist 1.03203
lhand -26.0155 -5.34276
lfingers 7.12502
lthumb 0.530745 24.6363
rfemur -12.7167 -2.27368 20.3273
rtibia 23.4158
rfoot -15.5003 -1.66003
rtoes 12.637
lfemur -11.9172 5.5442 -18.0499
ltibia 20.1724
lfoot -11.9062 4.5259
ltoes -3.96093
